# 3ds Max Wavefront OBJ Exporter v0.97b - (c)2007 guruware
# File Created: 16.06.2017 22:05:56

mtllib wall.mtl

#
# object Wall
#

v  -6.8799 2.5000 4.2877
v  -6.8799 -0.0000 4.2877
v  -6.8799 -0.0000 4.5877
v  -6.8799 2.5000 4.5877
v  -6.5799 2.5000 4.2877
v  -6.5799 -0.0000 4.2877
v  -6.5799 2.5000 4.5877
v  -6.5799 -0.0000 4.5877
v  6.5795 2.5000 4.5877
v  6.5795 -0.0000 4.5877
v  6.8795 -0.0000 4.5877
v  6.8795 2.5000 4.5877
v  6.5795 2.5000 4.2877
v  6.5795 -0.0000 4.2877
v  6.8795 2.5000 4.2877
v  6.8795 -0.0000 4.2877
v  -6.5799 2.5000 -4.5892
v  -6.5799 -0.0000 -4.5892
v  -6.8799 -0.0000 -4.5892
v  -6.8799 2.5000 -4.5892
v  -6.5799 2.5000 -4.2892
v  -6.5799 -0.0000 -4.2892
v  -6.8799 2.5000 -4.2892
v  -6.8799 -0.0000 -4.2892
v  6.8795 2.5000 -4.2894
v  6.8795 -0.0000 -4.2894
v  6.8795 -0.0000 -4.5894
v  6.8795 2.5000 -4.5894
v  6.5795 2.5000 -4.2894
v  6.5795 -0.0000 -4.2894
v  6.5795 2.5000 -4.5894
v  6.5795 -0.0000 -4.5894
v  4.5393 2.5000 -4.2955
v  4.8393 2.5000 -4.2955
v  4.8393 -0.0000 -4.2955
v  4.5393 -0.0000 -4.2955
v  4.5393 2.5000 -0.3002
v  4.8393 2.5000 -0.3002
v  4.5393 -0.0000 -0.3002
v  4.8393 -0.0000 -0.3002
v  4.5393 -0.0000 -1.8903
v  4.8393 -0.0000 -1.8903
v  2.7193 2.5000 -0.0001
v  2.7193 2.5000 -0.3001
v  2.7193 -0.0000 -0.3001
v  2.7193 -0.0000 -0.0001
v  6.6070 2.5000 -0.0001
v  6.6070 2.5000 -0.3001
v  6.6070 -0.0000 -0.0001
v  6.6070 -0.0000 -0.3001
v  2.4190 2.5000 -4.2914
v  2.7190 2.5000 -4.2914
v  2.7190 -0.0000 -4.2914
v  2.4190 -0.0000 -4.2914
v  2.4190 2.5000 4.2916
v  2.7190 2.5000 4.2916
v  2.4190 -0.0000 4.2916
v  2.7190 -0.0000 4.2916
v  2.4190 -0.0000 3.8779
v  2.7190 -0.0000 3.8779
v  -2.7167 2.5000 -0.3004
v  -2.7167 2.5000 -0.0004
v  -2.7167 -0.0000 -0.0004
v  -2.7167 -0.0000 -0.3004
v  -6.5782 2.5000 -0.3004
v  -6.5782 2.5000 -0.0004
v  -6.5782 -0.0000 -0.3004
v  -6.5782 -0.0000 -0.0004
v  -2.7167 2.5000 -4.3072
v  -2.4167 2.5000 -4.3071
v  -2.4167 -0.0000 -4.3071
v  -2.7167 -0.0000 -4.3072
v  -2.7195 2.5000 4.3036
v  -2.4195 2.5000 4.3037
v  -2.7195 -0.0000 4.3036
v  -2.4195 -0.0000 4.3037
v  -2.7194 -0.0000 3.9368
v  -2.4194 -0.0000 3.9368
v  -0.7644 -0.0000 -4.2893
v  -0.7644 -0.0000 -4.5893
v  -1.7644 2.2010 -4.5893
v  -1.7644 -0.0000 -4.5893
v  -0.7644 2.2010 -4.5893
v  -0.7644 2.2010 -4.2893
v  -1.7644 2.2010 -4.2893
v  -1.7644 -0.0000 -4.2893
v  -2.7194 2.2010 3.9368
v  -2.7169 -0.0000 -3.8903
v  -2.7169 2.2010 -3.8903
v  -2.7172 2.2010 -2.8903
v  -2.7172 -0.0000 -2.8903
v  -2.7190 -0.0000 2.9368
v  -2.7190 2.2010 2.9368
v  -2.4190 2.2010 2.9368
v  -2.4190 -0.0000 2.9368
v  -2.4172 -0.0000 -2.8903
v  -2.4172 2.2010 -2.8903
v  -2.4169 2.2010 -3.8903
v  -2.4169 -0.0000 -3.8903
v  -2.4194 2.2010 3.9368
v  2.7190 2.2010 -3.8903
v  2.7190 -0.0000 -3.8903
v  2.7190 2.2010 3.8779
v  2.7190 2.2010 1.8779
v  2.7190 -0.0000 1.8779
v  2.7190 -0.0000 -1.8903
v  2.7190 2.2010 -1.8903
v  2.4190 -0.0000 -3.8903
v  2.4190 -0.0000 -1.8903
v  2.4190 -0.0000 1.8779
v  2.4190 2.2010 -1.8903
v  2.4190 2.2010 1.8779
v  2.4190 2.2010 3.8779
v  2.4190 2.2010 -3.8903
v  4.5393 2.2010 -1.8903
v  4.5393 2.2010 -3.8903
v  4.5393 -0.0000 -3.8903
v  4.8393 2.2010 -3.8903
v  4.8393 -0.0000 -3.8903
v  4.8393 2.2010 -1.8903
v  5.1085 2.1993 4.5877
v  5.1085 0.9993 4.5877
v  3.1085 0.9993 4.5877
v  3.1085 2.1993 4.5877
v  1.0007 0.9993 4.5877
v  -0.9993 0.9993 4.5877
v  -0.9993 2.1993 4.5877
v  1.0007 2.1993 4.5877
v  1.0007 0.9993 4.2877
v  3.1085 2.1993 4.2877
v  3.1085 0.9993 4.2877
v  5.1085 2.1993 4.2877
v  5.1085 0.9993 4.2877
v  -0.9993 0.9993 4.2877
v  -0.9993 2.1993 4.2877
v  1.0007 2.1993 4.2877
v  -6.8799 2.1993 -3.5707
v  -6.8799 2.1993 -1.5707
v  -6.8799 0.9993 1.1672
v  -6.8799 2.1993 1.1672
v  -6.8799 0.9993 -1.5707
v  -6.8799 0.9993 -3.5707
v  -6.8799 0.9993 3.1672
v  -6.8799 2.1993 3.1672
v  -6.5799 2.1993 -3.5707
v  -6.5799 0.9993 -3.5707
v  -6.5799 0.9993 -1.5707
v  -6.5799 2.1993 -1.5707
v  -6.5799 0.9993 1.1672
v  -6.5799 0.9993 3.1672
v  -6.5799 2.1993 3.1672
v  -6.5799 2.1993 1.1672
# 152 vertices

vn -1.0000 0.0000 -0.0000
vn 0.0000 0.0000 -1.0000
vn 1.0000 0.0000 -0.0000
vn 0.0000 0.0000 1.0000
vn 0.0000 1.0000 -0.0000
vn 0.0000 -1.0000 -0.0000
vn -0.0000 0.0000 -1.0000
vn -1.0000 0.0000 0.0000
vn 0.0003 0.0000 -1.0000
vn -0.0003 0.0000 1.0000
vn -0.0000 -0.0000 -1.0000
vn 0.0000 -0.0000 1.0000
vn -1.0000 0.0000 -0.0003
vn -1.0000 -0.0000 -0.0003
vn 1.0000 0.0000 0.0003
vn 1.0000 -0.0000 0.0003
# 16 vertex normals

vt 4.7885 1.7500 -6.3797
vt 4.7885 -0.7500 -6.3797
vt 5.0885 -0.7500 -6.3797
vt 5.0885 1.7500 -6.3797
vt 7.0797 1.7500 -3.7885
vt 7.0797 -0.7500 -3.7885
vt 7.3797 -0.7500 -3.7885
vt 7.3797 1.7500 -3.7885
vt -4.0885 1.7500 -6.0797
vt -4.0885 -0.7500 -6.0797
vt -3.7885 -0.7500 -6.0797
vt -3.7885 1.7500 -6.0797
vt -6.3797 1.7500 -4.0885
vt -6.3797 -0.7500 -4.0885
vt -6.0797 -0.7500 -4.0885
vt -6.0797 1.7500 -4.0885
vt -6.3797 -4.0885 1.7500
vt -6.0797 -4.0885 1.7500
vt -6.0797 -3.7885 1.7500
vt -6.3797 -3.7885 1.7500
vt 7.0797 -3.7885 -0.7500
vt 7.0797 -4.0885 -0.7500
vt 7.3797 -4.0885 -0.7500
vt 7.3797 -3.7885 -0.7500
vt 7.0797 1.7500 -4.0885
vt 7.0797 -0.7500 -4.0885
vt 7.3797 -0.7500 -4.0885
vt 7.3797 1.7500 -4.0885
vt 4.7885 1.7500 7.0797
vt 4.7885 -0.7500 7.0797
vt 5.0885 -0.7500 7.0797
vt 5.0885 1.7500 7.0797
vt -6.3797 1.7500 -3.7885
vt -6.3797 -0.7500 -3.7885
vt -6.0797 -0.7500 -3.7885
vt -6.0797 1.7500 -3.7885
vt -4.0885 1.7500 7.3797
vt -4.0885 -0.7500 7.3797
vt -3.7885 -0.7500 7.3797
vt -3.7885 1.7500 7.3797
vt 7.3797 -4.0885 1.7500
vt 7.3797 -3.7885 1.7500
vt 7.0797 -3.7885 1.7500
vt 7.0797 -4.0885 1.7500
vt -6.0797 -3.7885 -0.7500
vt -6.3797 -3.7885 -0.7500
vt -6.3797 -4.0885 -0.7500
vt -6.0797 -4.0885 -0.7500
vt 7.0797 1.7500 5.0883
vt 7.0797 -0.7500 5.0883
vt 7.3797 -0.7500 5.0883
vt 7.3797 1.7500 5.0883
vt 4.7883 1.7500 -6.0797
vt 4.7883 -0.7500 -6.0797
vt 5.0883 -0.7500 -6.0797
vt 5.0883 1.7500 -6.0797
vt -6.3797 1.7500 4.7883
vt -6.3797 -0.7500 4.7883
vt -6.0797 -0.7500 4.7883
vt -6.0797 1.7500 4.7883
vt -4.0883 1.7500 -6.3797
vt -4.0883 -0.7500 -6.3797
vt -3.7883 -0.7500 -6.3797
vt -3.7883 1.7500 -6.3797
vt -6.3797 5.0883 1.7500
vt -6.3797 4.7883 1.7500
vt -6.0797 4.7883 1.7500
vt -6.0797 5.0883 1.7500
vt 7.0797 4.7883 -0.7500
vt 7.3797 4.7883 -0.7500
vt 7.3797 5.0883 -0.7500
vt 7.0797 5.0883 -0.7500
vt 4.7885 1.7500 7.3797
vt 4.7885 -0.7500 7.3797
vt 5.0885 -0.7500 7.3797
vt 5.0885 1.7500 7.3797
vt 7.0797 1.7500 4.7885
vt 7.0797 -0.7500 4.7885
vt 7.3797 -0.7500 4.7885
vt 7.3797 1.7500 4.7885
vt -4.0885 1.7500 7.0797
vt -4.0885 -0.7500 7.0797
vt -3.7885 -0.7500 7.0797
vt -3.7885 1.7500 7.0797
vt -6.3797 1.7500 5.0885
vt -6.3797 -0.7500 5.0885
vt -6.0797 -0.7500 5.0885
vt -6.0797 1.7500 5.0885
vt 7.3797 5.0885 1.7500
vt 7.0797 5.0885 1.7500
vt 7.0797 4.7885 1.7500
vt 7.3797 4.7885 1.7500
vt -6.0797 4.7885 -0.7500
vt -6.0797 5.0885 -0.7500
vt -6.3797 5.0885 -0.7500
vt -6.3797 4.7885 -0.7500
vt -4.0394 1.7500 4.7946
vt -4.3394 1.7500 4.7946
vt -4.3394 -0.7500 4.7946
vt -4.0394 -0.7500 4.7946
vt 5.0394 0.7993 1.7500
vt 5.3394 0.7993 1.7500
vt 5.3394 4.7946 1.7500
vt 5.0394 4.7946 1.7500
vt 5.0394 -0.7500 0.7993
vt 5.3394 -0.7500 0.7993
vt 5.3394 1.7500 0.7993
vt 5.0394 1.7500 0.7993
vt -4.0394 2.3894 -0.7500
vt -4.3394 2.3894 -0.7500
vt -4.3394 0.7993 -0.7500
vt -4.0394 0.7993 -0.7500
vt 0.5007 1.7500 3.2195
vt 0.2007 1.7500 3.2195
vt 0.2007 -0.7500 3.2195
vt 0.5007 -0.7500 3.2195
vt 7.1072 0.4993 1.7500
vt 7.1072 0.7993 1.7500
vt 3.2195 0.7993 1.7500
vt 3.2195 0.4993 1.7500
vt 0.4993 -0.7500 7.1072
vt 0.7993 -0.7500 7.1072
vt 0.7993 1.7500 7.1072
vt 0.4993 1.7500 7.1072
vt -2.2195 0.4993 -0.7500
vt -2.2195 0.7993 -0.7500
vt -6.1072 0.7993 -0.7500
vt -6.1072 0.4993 -0.7500
vt 3.2195 -0.7500 0.4993
vt 7.1072 -0.7500 0.4993
vt 7.1072 1.7500 0.4993
vt 3.2195 1.7500 0.4993
vt -6.1072 1.7500 0.7993
vt -6.1072 -0.7500 0.7993
vt -2.2195 -0.7500 0.7993
vt -2.2195 1.7500 0.7993
vt -1.9192 1.7500 4.7905
vt -2.2192 1.7500 4.7905
vt -2.2192 -0.7500 4.7905
vt -1.9192 -0.7500 4.7905
vt 2.9192 -3.7924 1.7500
vt 3.2192 -3.7924 1.7500
vt 3.2192 4.7905 1.7500
vt 2.9192 4.7905 1.7500
vt 2.9192 -0.7500 -3.7924
vt 3.2192 -0.7500 -3.7924
vt 3.2192 1.7500 -3.7924
vt 2.9192 1.7500 -3.7924
vt -1.9192 -3.3788 -0.7500
vt -2.2192 -3.3788 -0.7500
vt -2.2192 -3.7924 -0.7500
vt -1.9192 -3.7924 -0.7500
vt 0.7996 1.7500 -2.2166
vt 0.4996 1.7500 -2.2166
vt 0.4996 -0.7500 -2.2166
vt 0.7996 -0.7500 -2.2166
vt -6.0780 0.7996 1.7500
vt -6.0780 0.4996 1.7500
vt -2.2166 0.4996 1.7500
vt -2.2166 0.7996 1.7500
vt 0.2004 -0.7500 -6.0780
vt 0.5004 -0.7500 -6.0780
vt 0.5004 1.7500 -6.0780
vt 0.2004 1.7500 -6.0780
vt 3.2166 0.7996 -0.7500
vt 3.2166 0.4996 -0.7500
vt 7.0780 0.4996 -0.7500
vt 7.0780 0.7996 -0.7500
vt 3.2166 -0.7500 0.7996
vt 7.0780 -0.7500 0.7996
vt 7.0780 1.7500 0.7996
vt 3.2166 1.7500 0.7996
vt -6.0780 1.7500 0.4996
vt -6.0780 -0.7500 0.4996
vt -2.2166 -0.7500 0.4996
vt -2.2166 1.7500 0.4996
vt 3.2166 1.7500 4.8063
vt 2.9166 1.7500 4.8062
vt 2.9166 -0.7500 4.8062
vt 3.2166 -0.7500 4.8063
vt -2.2193 -3.8045 1.7500
vt -1.9193 -3.8046 1.7500
vt -1.9166 4.8062 1.7500
vt -2.2166 4.8063 1.7500
vt -2.2193 -0.7500 -3.8045
vt -1.9193 -0.7500 -3.8046
vt -1.9193 1.7500 -3.8046
vt -2.2193 1.7500 -3.8045
vt 3.2192 -3.4377 -0.7500
vt 2.9192 -3.4377 -0.7500
vt 2.9193 -3.8046 -0.7500
vt 3.2193 -3.8045 -0.7500
vt 7.0797 1.7500 4.7883
vt 7.0797 -0.7500 4.7883
vt 7.3797 -0.7500 4.7883
vt 7.3797 1.7500 4.7883
vt 4.7885 -0.7500 -6.0797
vt 5.0885 -0.7500 -6.0797
vt 5.0885 1.7500 -6.0797
vt 4.7885 1.7500 -6.0797
vt -6.0797 -0.7500 4.7885
vt -6.0797 1.7500 4.7885
vt -6.3797 1.7500 4.7885
vt -6.3797 -0.7500 4.7885
vt 1.2643 4.7884 -0.7500
vt 1.2643 5.0884 -0.7500
vt -4.0883 -0.7500 -6.0797
vt -3.7883 -0.7500 -6.0797
vt -3.7883 1.7500 -6.0797
vt -4.0883 1.7500 -6.0797
vt 2.2643 1.4510 5.0884
vt 2.2643 -0.7500 5.0884
vt 1.2643 1.4510 5.0884
vt 1.2643 -0.7500 5.0884
vt -0.2643 1.4510 4.7884
vt -0.2643 -0.7500 4.7884
vt -1.2643 1.4510 4.7884
vt -1.2643 -0.7500 4.7884
vt 2.2643 5.0884 -0.7500
vt 2.2643 4.7884 -0.7500
vt 4.4377 1.4510 -2.2192
vt 4.4377 -0.7500 -2.2192
vt 4.8045 -0.7500 -2.2193
vt 4.8045 1.7500 -2.2193
vt -3.8063 -0.7500 -2.2166
vt -3.3894 -0.7500 -2.2167
vt -3.3894 1.4510 -2.2167
vt -3.8063 1.7500 -2.2166
vt -2.3894 1.4510 -2.2170
vt -2.3894 -0.7500 -2.2170
vt 3.4377 -0.7500 -2.2189
vt 3.4377 1.4510 -2.2189
vt -2.4377 1.4510 -1.9189
vt -2.4377 -0.7500 -1.9189
vt 3.3894 -0.7500 -1.9170
vt 3.3894 1.4510 -1.9170
vt 4.3894 1.4510 -1.9167
vt 4.3894 -0.7500 -1.9167
vt 4.8062 -0.7500 -1.9166
vt 4.8062 1.7500 -1.9166
vt -3.8046 1.7500 -1.9193
vt -3.4377 1.4510 -1.9192
vt -3.8046 -0.7500 -1.9193
vt -3.4377 -0.7500 -1.9192
vt 3.2167 4.3894 -0.7500
vt 3.2166 4.8063 -0.7500
vt 2.9166 4.8062 -0.7500
vt 2.9167 4.3894 -0.7500
vt 3.2170 3.3894 -0.7500
vt 2.9170 3.3894 -0.7500
vt 2.9189 -2.4377 -0.7500
vt 3.2189 -2.4377 -0.7500
vt 4.3894 1.4510 3.2192
vt 4.3894 -0.7500 3.2192
vt 4.7905 -0.7500 3.2192
vt 4.7905 1.7500 3.2192
vt -3.7924 -0.7500 3.2192
vt -3.3788 -0.7500 3.2192
vt -3.3788 1.4510 3.2192
vt -3.7924 1.7500 3.2192
vt -1.3788 1.4510 3.2192
vt -1.3788 -0.7500 3.2192
vt 2.3894 -0.7500 3.2192
vt 2.3894 1.4510 3.2192
vt -1.9192 4.7905 -0.7500
vt -2.2192 4.7905 -0.7500
vt -2.2192 4.3894 -0.7500
vt -1.9192 4.3894 -0.7500
vt -1.9192 2.3894 -0.7500
vt -2.2192 2.3894 -0.7500
vt -2.2192 -1.3788 -0.7500
vt -1.9192 -1.3788 -0.7500
vt -1.3894 1.4510 2.9192
vt -1.3894 -0.7500 2.9192
vt 2.3788 -0.7500 2.9192
vt 2.3788 1.4510 2.9192
vt 4.3788 1.4510 2.9192
vt 4.3788 -0.7500 2.9192
vt 4.7924 -0.7500 2.9192
vt 4.7924 1.7500 2.9192
vt -3.7905 1.7500 2.9192
vt -3.3894 1.4510 2.9192
vt -3.7905 -0.7500 2.9192
vt -3.3894 -0.7500 2.9192
vt -1.3894 1.4510 5.0394
vt -1.3894 -0.7500 5.0394
vt 0.2007 -0.7500 5.0394
vt 0.2007 1.7500 5.0394
vt -3.7946 1.7500 5.0394
vt -3.3894 1.4510 5.0394
vt -3.7946 -0.7500 5.0394
vt -3.3894 -0.7500 5.0394
vt 4.3894 1.4510 5.3394
vt 4.3894 -0.7500 5.3394
vt 4.7946 -0.7500 5.3394
vt 4.7946 1.7500 5.3394
vt 2.3894 1.4510 5.3394
vt 0.7993 1.7500 5.3394
vt 0.7993 -0.7500 5.3394
vt 2.3894 -0.7500 5.3394
vt -4.0394 4.3894 -0.7500
vt -4.0394 4.7946 -0.7500
vt -4.3394 4.7946 -0.7500
vt -4.3394 4.3894 -0.7500
vt 5.6086 1.4493 -4.0885
vt 5.6086 0.2493 -4.0885
vt 3.6086 0.2493 -4.0885
vt 3.6086 1.4493 -4.0885
vt 1.5009 0.2493 -4.0885
vt -0.4991 0.2493 -4.0885
vt -0.4991 1.4493 -4.0885
vt 1.5009 1.4493 -4.0885
vt -0.5009 0.2493 -3.7885
vt -2.6086 1.4493 -3.7885
vt -2.6086 0.2493 -3.7885
vt -4.6086 1.4493 -3.7885
vt -4.6086 0.2493 -3.7885
vt 1.4991 0.2493 -3.7885
vt 1.4991 1.4493 -3.7885
vt -0.5009 1.4493 -3.7885
vt -3.0698 1.4493 -6.3797
vt -1.0698 1.4493 -6.3797
vt 1.6680 0.2493 -6.3797
vt 1.6680 1.4493 -6.3797
vt -1.0698 0.2493 -6.3797
vt -3.0698 0.2493 -6.3797
vt 3.6680 0.2493 -6.3797
vt 3.6680 1.4493 -6.3797
vt 4.0698 1.4493 -6.0797
vt 4.0698 0.2493 -6.0797
vt 2.0698 0.2493 -6.0797
vt 2.0698 1.4493 -6.0797
vt -0.6680 0.2493 -6.0797
vt -2.6680 0.2493 -6.0797
vt -2.6680 1.4493 -6.0797
vt -0.6680 1.4493 -6.0797
# 336 texture coords

g Wall
usemtl 04___Default
s off
f 1/1/1 2/2/1 3/3/1 
f 3/3/1 4/4/1 1/1/1 
f 5/5/2 6/6/2 2/7/2 
f 2/7/2 1/8/2 5/5/2 
f 7/9/3 8/10/3 6/11/3 
f 6/11/3 5/12/3 7/9/3 
f 4/13/4 3/14/4 8/15/4 
f 8/15/4 7/16/4 4/13/4 
f 4/17/5 7/18/5 5/19/5 
f 5/19/5 1/20/5 4/17/5 
f 6/21/6 8/22/6 3/23/6 
f 3/23/6 2/24/6 6/21/6 
f 9/25/4 10/26/4 11/27/4 
f 11/27/4 12/28/4 9/25/4 
f 13/29/1 14/30/1 10/31/1 
f 10/31/1 9/32/1 13/29/1 
f 15/33/2 16/34/2 14/35/2 
f 14/35/2 13/36/2 15/33/2 
f 12/37/3 11/38/3 16/39/3 
f 16/39/3 15/40/3 12/37/3 
f 12/41/5 15/42/5 13/43/5 
f 13/43/5 9/44/5 12/41/5 
f 14/45/6 16/46/6 11/47/6 
f 11/47/6 10/48/6 14/45/6 
f 17/49/7 18/50/7 19/51/7 
f 19/51/7 20/52/7 17/49/7 
f 21/53/3 22/54/3 18/55/3 
f 18/55/3 17/56/3 21/53/3 
f 23/57/4 24/58/4 22/59/4 
f 22/59/4 21/60/4 23/57/4 
f 20/61/1 19/62/1 24/63/1 
f 24/63/1 23/64/1 20/61/1 
f 20/65/5 23/66/5 21/67/5 
f 21/67/5 17/68/5 20/65/5 
f 22/69/6 24/70/6 19/71/6 
f 19/71/6 18/72/6 22/69/6 
f 25/73/3 26/74/3 27/75/3 
f 27/75/3 28/76/3 25/73/3 
f 29/77/4 30/78/4 26/79/4 
f 26/79/4 25/80/4 29/77/4 
f 31/81/8 32/82/8 30/83/8 
f 30/83/8 29/84/8 31/81/8 
f 28/85/7 27/86/7 32/87/7 
f 32/87/7 31/88/7 28/85/7 
f 28/89/5 31/90/5 29/91/5 
f 29/91/5 25/92/5 28/89/5 
f 30/93/6 32/94/6 27/95/6 
f 27/95/6 26/96/6 30/93/6 
s 1
f 33/97/2 34/98/2 35/99/2 
f 35/99/2 36/100/2 33/97/2 
s 2
f 37/101/5 38/102/5 34/103/5 
f 34/103/5 33/104/5 37/101/5 
s 1
f 39/105/4 40/106/4 38/107/4 
f 38/107/4 37/108/4 39/105/4 
s 2
f 41/109/6 42/110/6 40/111/6 
f 40/111/6 39/112/6 41/109/6 
s 1
f 43/113/1 44/114/1 45/115/1 
f 45/115/1 46/116/1 43/113/1 
s 2
f 47/117/5 48/118/5 44/119/5 
f 44/119/5 43/120/5 47/117/5 
s 1
f 49/121/3 50/122/3 48/123/3 
f 48/123/3 47/124/3 49/121/3 
s 2
f 46/125/6 45/126/6 50/127/6 
f 50/127/6 49/128/6 46/125/6 
s 4
f 46/129/4 49/130/4 47/131/4 
f 47/131/4 43/132/4 46/129/4 
f 48/133/2 50/134/2 45/135/2 
f 45/135/2 44/136/2 48/133/2 
s 1
f 51/137/2 52/138/2 53/139/2 
f 53/139/2 54/140/2 51/137/2 
s 2
f 55/141/5 56/142/5 52/143/5 
f 52/143/5 51/144/5 55/141/5 
s 1
f 57/145/4 58/146/4 56/147/4 
f 56/147/4 55/148/4 57/145/4 
s 2
f 59/149/6 60/150/6 58/151/6 
f 58/151/6 57/152/6 59/149/6 
s 1
f 61/153/3 62/154/3 63/155/3 
f 63/155/3 64/156/3 61/153/3 
s 2
f 65/157/5 66/158/5 62/159/5 
f 62/159/5 61/160/5 65/157/5 
s 1
f 67/161/1 68/162/1 66/163/1 
f 66/163/1 65/164/1 67/161/1 
s 2
f 64/165/6 63/166/6 68/167/6 
f 68/167/6 67/168/6 64/165/6 
s 4
f 64/169/2 67/170/2 65/171/2 
f 65/171/2 61/172/2 64/169/2 
f 66/173/4 68/174/4 63/175/4 
f 63/175/4 62/176/4 66/173/4 
s 1
f 69/177/9 70/178/9 71/179/9 
f 71/179/9 72/180/9 69/177/9 
s 2
f 73/181/5 74/182/5 70/183/5 
f 70/183/5 69/184/5 73/181/5 
s 1
f 75/185/10 76/186/10 74/187/10 
f 74/187/10 73/188/10 75/185/10 
s 2
f 77/189/6 78/190/6 76/191/6 
f 76/191/6 75/192/6 77/189/6 
f 1/20/5 5/19/5 21/67/5 
f 21/67/5 23/66/5 1/20/5 
f 6/21/6 2/24/6 24/70/6 
f 24/70/6 22/69/6 6/21/6 
s 4
f 21/193/2 22/194/2 24/195/2 
f 24/195/2 23/196/2 21/193/2 
f 2/34/4 6/35/4 5/36/4 
f 5/36/4 1/33/4 2/34/4 
s 2
f 8/22/6 6/21/6 14/45/6 
f 14/45/6 10/48/6 8/22/6 
f 5/19/5 7/18/5 9/44/5 
f 9/44/5 13/43/5 5/19/5 
s 4
f 14/83/3 13/84/3 9/81/3 
f 9/81/3 10/82/3 14/83/3 
f 6/197/1 8/198/1 7/199/1 
f 7/199/1 5/200/1 6/197/1 
s 1
f 15/40/3 16/39/3 26/74/3 
f 26/74/3 25/73/3 15/40/3 
s 2
f 16/46/6 14/45/6 30/93/6 
f 30/93/6 26/96/6 16/46/6 
s 1
f 14/30/1 13/29/1 29/84/1 
f 29/84/1 30/83/1 14/30/1 
s 2
f 13/43/5 15/42/5 25/92/5 
f 25/92/5 29/91/5 13/43/5 
s 4
f 30/201/2 29/202/2 25/203/2 
f 25/203/2 26/204/2 30/201/2 
f 14/6/4 16/7/4 15/8/4 
f 15/8/4 13/5/4 14/6/4 
s 2
f 17/68/5 21/67/5 29/91/5 
f 29/91/5 31/90/5 17/68/5 
f 79/205/6 80/206/6 32/94/6 
f 32/94/6 30/93/6 79/205/6 
s 4
f 29/29/3 30/30/3 32/31/3 
f 32/31/3 31/32/3 29/29/3 
f 18/207/8 22/208/8 21/209/8 
f 21/209/8 17/210/8 18/207/8 
s 1
f 81/211/7 82/212/11 18/50/11 
f 81/211/7 18/50/11 17/49/7 
f 83/213/11 81/211/7 17/49/7 
f 83/213/11 17/49/7 31/88/11 
f 83/213/11 31/88/11 32/87/7 
f 83/213/11 32/87/7 80/214/7 
f 84/215/4 79/216/4 30/78/4 
f 84/215/4 30/78/4 29/77/4 
f 84/215/4 29/77/4 21/60/4 
f 85/217/4 84/215/4 21/60/4 
f 85/217/4 21/60/4 22/59/12 
f 85/217/4 22/59/12 86/218/12 
s 2
f 22/69/6 18/72/6 82/219/6 
f 82/219/6 86/220/6 22/69/6 
s 4
f 87/221/13 77/222/13 75/223/13 
f 87/221/13 75/223/13 73/224/14 
f 72/225/13 88/226/13 89/227/14 
f 69/228/14 72/225/13 89/227/14 
f 69/228/14 89/227/14 90/229/14 
f 73/224/14 69/228/14 90/229/14 
f 90/229/14 91/230/13 92/231/13 
f 90/229/14 92/231/13 93/232/14 
f 73/224/14 90/229/14 93/232/14 
f 87/221/13 73/224/14 93/232/14 
f 94/233/15 95/234/16 96/235/16 
f 94/233/15 96/235/16 97/236/15 
f 98/237/15 99/238/16 71/239/16 
f 98/237/15 71/239/16 70/240/15 
f 97/236/15 98/237/15 70/240/15 
f 97/236/15 70/240/15 74/241/15 
f 94/233/15 97/236/15 74/241/15 
f 100/242/16 94/233/15 74/241/15 
f 100/242/16 74/241/15 76/243/15 
f 100/242/16 76/243/15 78/244/15 
s 2
f 88/245/6 72/246/6 71/247/6 
f 71/247/6 99/248/6 88/245/6 
f 91/249/6 96/250/6 95/251/6 
f 95/251/6 92/252/6 91/249/6 
s 4
f 101/253/3 102/254/3 53/255/3 
f 101/253/3 53/255/3 52/256/3 
f 58/257/3 60/258/3 103/259/3 
f 56/260/3 58/257/3 103/259/3 
f 56/260/3 103/259/3 104/261/3 
f 52/256/3 56/260/3 104/261/3 
f 104/261/3 105/262/3 106/263/3 
f 104/261/3 106/263/3 107/264/3 
f 52/256/3 104/261/3 107/264/3 
f 101/253/3 52/256/3 107/264/3 
s 2
f 54/265/6 53/266/6 102/267/6 
f 102/267/6 108/268/6 54/265/6 
f 109/269/6 106/270/6 105/271/6 
f 105/271/6 110/272/6 109/269/6 
s 4
f 111/273/1 109/274/1 110/275/1 
f 111/273/1 110/275/1 112/276/1 
f 113/277/1 59/278/1 57/279/1 
f 113/277/1 57/279/1 55/280/1 
f 112/276/1 113/277/1 55/280/1 
f 112/276/1 55/280/1 51/281/1 
f 111/273/1 112/276/1 51/281/1 
f 114/282/1 111/273/1 51/281/1 
f 114/282/1 51/281/1 54/283/1 
f 114/282/1 54/283/1 108/284/1 
f 115/285/1 41/286/1 39/287/1 
f 115/285/1 39/287/1 37/288/1 
f 115/285/1 37/288/1 33/289/1 
f 116/290/1 115/285/1 33/289/1 
f 116/290/1 33/289/1 36/291/1 
f 116/290/1 36/291/1 117/292/1 
f 118/293/3 119/294/3 35/295/3 
f 118/293/3 35/295/3 34/296/3 
f 120/297/3 118/293/3 34/296/3 
f 120/297/3 34/296/3 38/298/3 
f 120/297/3 38/298/3 40/299/3 
f 120/297/3 40/299/3 42/300/3 
s 2
f 117/301/6 36/302/6 35/303/6 
f 35/303/6 119/304/6 117/301/6 
s 1
f 9/25/4 121/305/4 122/306/4 
f 10/26/4 9/25/4 122/306/4 
f 10/26/4 122/306/4 123/307/4 
f 123/307/4 124/308/4 125/309/4 
f 10/26/4 123/307/4 125/309/4 
f 8/15/4 10/26/4 125/309/4 
f 8/15/4 125/309/4 126/310/4 
f 7/16/4 8/15/4 126/310/4 
f 7/16/4 126/310/4 127/311/4 
f 9/25/4 7/16/4 127/311/4 
f 9/25/4 127/311/4 128/312/4 
f 128/312/4 125/309/4 124/308/4 
f 9/25/4 128/312/4 124/308/4 
f 121/305/4 9/25/4 124/308/4 
f 129/313/2 130/314/2 131/315/2 
f 132/316/2 130/314/2 13/36/2 
f 133/317/2 132/316/2 13/36/2 
f 133/317/2 13/36/2 14/35/2 
f 131/315/2 133/317/2 14/35/2 
f 129/313/2 131/315/2 14/35/2 
f 129/313/2 14/35/2 6/6/2 
f 134/318/2 129/313/2 6/6/2 
f 134/318/2 6/6/2 5/5/2 
f 135/319/2 134/318/2 5/5/2 
f 136/320/2 135/319/2 5/5/2 
f 136/320/2 5/5/2 13/36/2 
f 136/320/2 13/36/2 130/314/2 
f 129/313/2 136/320/2 130/314/2 
f 23/64/1 137/321/1 138/322/1 
f 138/322/1 139/323/1 140/324/1 
f 23/64/1 138/322/1 140/324/1 
f 139/323/1 138/322/1 141/325/1 
f 142/326/1 137/321/1 23/64/1 
f 142/326/1 23/64/1 24/63/1 
f 141/325/1 142/326/1 24/63/1 
f 139/323/1 141/325/1 24/63/1 
f 139/323/1 24/63/1 2/2/1 
f 143/327/1 139/323/1 2/2/1 
f 143/327/1 2/2/1 1/1/1 
f 144/328/1 143/327/1 1/1/1 
f 140/324/1 144/328/1 1/1/1 
f 23/64/1 140/324/1 1/1/1 
f 21/53/3 145/329/3 146/330/3 
f 22/54/3 21/53/3 146/330/3 
f 22/54/3 146/330/3 147/331/3 
f 147/331/3 148/332/3 149/333/3 
f 22/54/3 147/331/3 149/333/3 
f 6/11/3 22/54/3 149/333/3 
f 6/11/3 149/333/3 150/334/3 
f 5/12/3 6/11/3 150/334/3 
f 5/12/3 150/334/3 151/335/3 
f 5/12/3 151/335/3 152/336/3 
f 21/53/3 5/12/3 152/336/3 
f 152/336/3 149/333/3 148/332/3 
f 21/53/3 152/336/3 148/332/3 
f 145/329/3 21/53/3 148/332/3 
# 264 faces

